<mxfile host="Electron" modified="2024-03-17T16:29:55.961Z" agent="Mozilla/5.0 (Windows NT 10.0; Win64; x64) AppleWebKit/537.36 (KHTML, like Gecko) draw.io/22.1.18 Chrome/120.0.6099.199 Electron/28.1.2 Safari/537.36" etag="EdLu0LE553CK8Av0us_u" version="22.1.18" type="device">
  <diagram name="第 1 页" id="JB98_i84MAFNUkO-JW3T">
    <mxGraphModel dx="1036" dy="606" grid="1" gridSize="10" guides="1" tooltips="1" connect="1" arrows="1" fold="1" page="1" pageScale="1" pageWidth="827" pageHeight="1169" math="0" shadow="0">
      <root>
        <mxCell id="0" />
        <mxCell id="1" parent="0" />
        <mxCell id="VQ5oo3bVcIo8G7VSj_SB-1" value="&lt;font style=&quot;font-size: 18px;&quot;&gt;data=0x1068454&lt;/font&gt;" style="rounded=1;whiteSpace=wrap;html=1;fillColor=#ffe6cc;strokeColor=#d79b00;" vertex="1" parent="1">
          <mxGeometry x="160" y="150" width="140" height="40" as="geometry" />
        </mxCell>
        <mxCell id="VQ5oo3bVcIo8G7VSj_SB-2" value="&lt;font style=&quot;font-size: 18px;&quot;&gt;len=5&lt;/font&gt;" style="rounded=1;whiteSpace=wrap;html=1;fillColor=#ffe6cc;strokeColor=#d79b00;" vertex="1" parent="1">
          <mxGeometry x="160" y="190" width="140" height="40" as="geometry" />
        </mxCell>
        <mxCell id="VQ5oo3bVcIo8G7VSj_SB-3" value="&lt;font style=&quot;font-size: 18px;&quot;&gt;data=0x1068454&lt;/font&gt;" style="rounded=1;whiteSpace=wrap;html=1;fillColor=#dae8fc;strokeColor=#6c8ebf;" vertex="1" parent="1">
          <mxGeometry x="160" y="230" width="140" height="40" as="geometry" />
        </mxCell>
        <mxCell id="VQ5oo3bVcIo8G7VSj_SB-4" value="&lt;font style=&quot;font-size: 18px;&quot;&gt;len=5&lt;/font&gt;" style="rounded=1;whiteSpace=wrap;html=1;fillColor=#dae8fc;strokeColor=#6c8ebf;" vertex="1" parent="1">
          <mxGeometry x="160" y="270" width="140" height="40" as="geometry" />
        </mxCell>
        <mxCell id="VQ5oo3bVcIo8G7VSj_SB-6" value="&lt;font style=&quot;font-size: 18px;&quot;&gt;变量a的数据结构, a的地址0xc0000282a0，共16个字节&lt;/font&gt;" style="text;html=1;align=left;verticalAlign=middle;whiteSpace=wrap;rounded=0;" vertex="1" parent="1">
          <mxGeometry x="10" y="90" width="160" height="80" as="geometry" />
        </mxCell>
        <mxCell id="VQ5oo3bVcIo8G7VSj_SB-7" value="&lt;font style=&quot;font-size: 18px;&quot;&gt;变量吧的数据结构, a的地址0xc0000282b0，共16个字节&lt;/font&gt;" style="text;html=1;strokeColor=none;fillColor=none;align=left;verticalAlign=middle;whiteSpace=wrap;rounded=0;" vertex="1" parent="1">
          <mxGeometry y="280" width="160" height="80" as="geometry" />
        </mxCell>
        <mxCell id="VQ5oo3bVcIo8G7VSj_SB-9" value="&lt;span style=&quot;font-size: 18px;&quot;&gt;hello&lt;/span&gt;" style="rounded=1;whiteSpace=wrap;html=1;fillColor=#f8cecc;strokeColor=#b85450;" vertex="1" parent="1">
          <mxGeometry x="400" y="200" width="140" height="40" as="geometry" />
        </mxCell>
        <mxCell id="VQ5oo3bVcIo8G7VSj_SB-10" value="&lt;font style=&quot;font-size: 18px;&quot;&gt;&lt;font style=&quot;&quot;&gt;字符串常量，地址&lt;/font&gt;0x1068454&lt;/font&gt;" style="text;html=1;align=left;verticalAlign=middle;whiteSpace=wrap;rounded=0;" vertex="1" parent="1">
          <mxGeometry x="540" y="150" width="160" height="80" as="geometry" />
        </mxCell>
        <mxCell id="VQ5oo3bVcIo8G7VSj_SB-12" value="" style="endArrow=classic;html=1;rounded=0;entryX=0;entryY=0.25;entryDx=0;entryDy=0;" edge="1" parent="1" target="VQ5oo3bVcIo8G7VSj_SB-9">
          <mxGeometry width="50" height="50" relative="1" as="geometry">
            <mxPoint x="300" y="170" as="sourcePoint" />
            <mxPoint x="350" y="120" as="targetPoint" />
          </mxGeometry>
        </mxCell>
        <mxCell id="VQ5oo3bVcIo8G7VSj_SB-13" value="" style="endArrow=classic;html=1;rounded=0;entryX=0;entryY=0.75;entryDx=0;entryDy=0;" edge="1" parent="1" target="VQ5oo3bVcIo8G7VSj_SB-9">
          <mxGeometry width="50" height="50" relative="1" as="geometry">
            <mxPoint x="300" y="250" as="sourcePoint" />
            <mxPoint x="350" y="200" as="targetPoint" />
          </mxGeometry>
        </mxCell>
      </root>
    </mxGraphModel>
  </diagram>
</mxfile>
